%FSTAX23Y23*%
%MOIN*%
%SFA1B1*%

%IPPOS*%
%ADD10C,0.027559*%
%ADD11R,0.078740X0.078740*%
%ADD12R,0.100000X0.060630*%
%ADD13R,0.086614X0.086614*%
%ADD14O,0.098425X0.157480*%
%ADD15O,0.173228X0.098425*%
%ADD16O,0.157480X0.098425*%
%ADD17R,0.133858X0.125984*%
%ADD18C,0.078740*%
%ADD19R,0.037401X0.066929*%
%ADD20R,0.098425X0.129921*%
%ADD21R,0.236220X0.129921*%
%ADD22R,0.078740X0.078740*%
%ADD23R,0.035433X0.061024*%
%ADD24R,0.169291X0.051181*%
%ADD25R,0.354330X0.275590*%
%ADD26C,0.010000*%
%ADD27C,0.039370*%
%ADD28C,0.033465*%
%LNftm_pcb_copper_signal_bot-1*%
%LPD*%
G54D10*
X01788Y00255D02*
X01805Y00271D01*
Y00555*
X01Y00271D02*
Y00843D01*
Y00271D02*
X01016Y00255D01*
X01788*
X02381Y0041D02*
X03163D01*
X02365Y00426D02*
X02381Y0041D01*
X02365Y00426D02*
Y00835D01*
X0225Y00571D02*
Y01698D01*
X02266Y01714*
X01805Y00555D02*
X02233D01*
X02304Y01714D02*
X02329Y0174D01*
X02266Y01714D02*
X02304D01*
X02233Y00555D02*
X0225Y00571D01*
X01201Y0095D02*
X01738D01*
Y00445D02*
X01755Y00461D01*
Y00933*
X01335Y00445D02*
X01738D01*
Y0095D02*
X01755Y00933D01*
X01185Y00966D02*
Y0137D01*
Y00966D02*
X01201Y0095D01*
X01265Y0077D02*
X0155D01*
X00907Y00993D02*
X01041D01*
X01265Y0077*
X01205Y0247D02*
X01213Y02478D01*
X01233Y02486D02*
X01545D01*
X01528Y01815D02*
X01545Y01831D01*
Y02486*
X01773*
X01201Y01815D02*
X01528D01*
X01205Y02251D02*
Y0247D01*
Y02486D02*
X01233D01*
X00261D02*
X01205D01*
X01685Y01675D02*
X01701Y01691D01*
Y01793D02*
X01717Y0181D01*
X02065*
X01495Y01675D02*
X01685D01*
X01701Y01691D02*
Y01793D01*
X01185Y01798D02*
X01201Y01815D01*
X01185Y0137D02*
Y01798D01*
X01487Y01203D02*
X01531Y0116D01*
X0139Y0134D02*
X01487Y01242D01*
X0139Y0134D02*
Y0137D01*
X01531Y0116D02*
X0155D01*
X01487Y01203D02*
Y01242D01*
X0155Y0116D02*
X01565Y01175D01*
X01295Y0137D02*
X0139D01*
Y01375D02*
X01495D01*
X02505Y0181D02*
X02785D01*
X02495Y0202D02*
X02505Y0201D01*
X02331Y0202D02*
X02495D01*
X02315Y0185D02*
Y02003D01*
X02331Y0202*
X00385Y01526D02*
X00497D01*
X00546Y01575*
X00396Y0144D02*
X0056D01*
X00385Y01428D02*
X00396Y0144D01*
X0056D02*
X00595Y01475D01*
X00458Y01723D02*
X0051Y01775D01*
X00695*
X00385Y01723D02*
X00458D01*
X006Y01675D02*
X00695D01*
X00385Y01625D02*
X0055D01*
X006Y01675*
X00595Y01475D02*
X00695D01*
X00546Y01575D02*
X00695D01*
X01725Y01326D02*
X01741Y0131D01*
X01725Y01326D02*
Y01458D01*
X01741Y0131D02*
X01905D01*
X01708Y01475D02*
X01725Y01458D01*
X01495Y01475D02*
X01708D01*
X01714Y0161D02*
X01905D01*
X01495Y01575D02*
X01679D01*
X01714Y0161*
X00471Y01141D02*
X0053Y012D01*
X00471Y00926D02*
Y01141D01*
X0053Y012D02*
Y01215D01*
X00875Y00676D02*
Y00793D01*
X00858Y0066D02*
X00875Y00676D01*
X00659Y00644D02*
X00675Y0066D01*
X00659Y00504D02*
Y00644D01*
X00675Y0066D02*
X00858D01*
X00471Y00926D02*
X00875D01*
X00654Y00499D02*
X00659Y00504D01*
X00521Y00499D02*
X00654D01*
X00517Y00495D02*
X00521Y00499D01*
X00517Y00495D02*
Y00495D01*
X00415Y0051D02*
Y0087D01*
X01298Y00575D02*
X01318Y00555D01*
Y00461D02*
X01335Y00445D01*
X01556Y0077D02*
X01599Y00726D01*
X01318Y00461D02*
Y00555D01*
X01052Y00575D02*
Y00902D01*
X01028Y00926D02*
X01052Y00902D01*
X01599Y00521D02*
Y00726D01*
X0145Y00755D02*
X01455Y0075D01*
X01052Y005D02*
Y00575D01*
X01153Y00496D02*
X01157Y005D01*
X01052Y00575D02*
X01298D01*
X00983Y0086D02*
X01Y00843D01*
X00875Y00926D02*
X01028D01*
X00875Y0086D02*
X00983D01*
X00415Y0087D02*
X00471Y00926D01*
X01928Y01025D02*
X0214D01*
X02505Y0101D02*
X027D01*
X01905D02*
X01913D01*
X01928Y01025*
X02835Y01021D02*
X02851Y01005D01*
X03079*
X02915Y0186D02*
Y02273D01*
X02931Y0229D02*
X03075D01*
X02691Y02406D02*
X03075D01*
X02915Y02273D02*
X02931Y0229D01*
X01773Y02486D02*
X03075D01*
X02665Y0191D02*
Y0238D01*
X02691Y02406*
X02065Y0181D02*
Y01833D01*
X02329Y0174D02*
X0237D01*
X02081Y0185D02*
X02315D01*
X02065Y01833D02*
X02081Y0185D01*
X02065Y0166D02*
Y0181D01*
X03108Y01565D02*
X03111Y01568D01*
X03116Y0186D02*
X0312Y01863D01*
X03113Y0166D02*
X0312Y01666D01*
X03111Y01568D02*
X0312D01*
X02505Y0111D02*
X02818D01*
X02715Y01205D02*
X02731Y01221D01*
X03163Y01107D02*
X0318Y01091D01*
X02818Y0111D02*
X02835Y01093D01*
X03084Y01107D02*
X03163D01*
X02505Y0121D02*
X0251Y01205D01*
X02715*
X03079Y01102D02*
X03084Y01107D01*
X02835Y01021D02*
Y01093D01*
X027Y0101D02*
X02804Y00905D01*
X02505Y0081D02*
X03079D01*
X02804Y00905D02*
X0308D01*
X01788Y01175D02*
X01805Y01158D01*
X0309Y0166D02*
X03091Y0166D01*
X02785Y0181D02*
X02835Y0186D01*
X02655Y01765D02*
X0312D01*
X03091Y0166D02*
X03113D01*
X02915Y0186D02*
X03116D01*
X02835D02*
X02915D01*
X02747Y0166D02*
X0309D01*
X02731Y01643D02*
X02747Y0166D01*
X02731Y01221D02*
Y01643D01*
X02505Y0141D02*
X0266D01*
X0244Y0181D02*
X02505D01*
Y0171D02*
X026D01*
X0237Y0174D02*
X0244Y0181D01*
X026Y0171D02*
X02655Y01765D01*
X03163Y0041D02*
X0318Y00426D01*
Y01091*
X0312Y01568D02*
X03228D01*
X03245Y01584D02*
Y0247D01*
X03228Y01568D02*
X03245Y01584D01*
X03075Y02486D02*
X03228D01*
X03245Y0247*
X01565Y01175D02*
X01788D01*
X00261Y02024D02*
X00383D01*
X01153Y00386D02*
Y00496D01*
Y00386D02*
X01175Y00365D01*
X01545*
X00245Y0204D02*
Y0247D01*
X00261Y02486*
X00245Y0204D02*
X00261Y02024D01*
X01805Y00555D02*
Y01158D01*
G54D11*
X02505Y0211D03*
Y0201D03*
Y0191D03*
Y0181D03*
Y0171D03*
Y0161D03*
Y0151D03*
Y0141D03*
Y0131D03*
Y0121D03*
Y0111D03*
Y0101D03*
Y0091D03*
Y0081D03*
Y0071D03*
X01905Y0211D03*
Y0201D03*
Y0191D03*
Y0181D03*
Y0171D03*
Y0161D03*
Y0151D03*
Y0141D03*
Y0131D03*
Y0121D03*
Y0111D03*
Y0101D03*
Y0091D03*
Y0081D03*
Y0071D03*
G54D12*
X01495Y01575D03*
Y01675D03*
Y01475D03*
Y01375D03*
X00695Y01775D03*
Y01275D03*
Y01375D03*
Y01475D03*
Y01575D03*
Y01675D03*
G54D13*
X03079Y00905D03*
Y00807D03*
Y01004D03*
Y01102D03*
X03075Y02486D03*
Y02388D03*
Y0229D03*
X00385Y01526D03*
Y01428D03*
Y01625D03*
Y01723D03*
X0312Y01765D03*
Y01863D03*
Y01666D03*
Y01568D03*
G54D14*
X01019Y02133D03*
G54D15*
X01205Y02015D03*
G54D16*
X01205Y02251D03*
G54D17*
X00383Y02024D03*
X006D03*
X00383Y0219D03*
X006D03*
G54D18*
X02365Y00835D03*
X02065Y0166D03*
X0266Y0141D03*
X0214Y01025D03*
X02665Y0191D03*
X01545Y00365D03*
G54D19*
X0053Y01215D03*
X00419D03*
X01295Y0137D03*
X01184D03*
X0077Y0051D03*
X00659D03*
G54D20*
X01591Y00555D03*
X01318D03*
G54D21*
X0155Y0116D03*
Y0077D03*
G54D22*
X02315Y0185D03*
Y01739D03*
G54D23*
X00412Y00495D03*
X00517D03*
X01157Y005D03*
X01052D03*
G54D24*
X00875Y0106D03*
Y00993D03*
Y00926D03*
Y0086D03*
Y00793D03*
G54D25*
X00471Y00926D03*
G54D26*
X0Y0D02*
X0345D01*
X0Y0285D02*
X0345D01*
Y0D02*
Y0285D01*
X0Y0D02*
Y0285D01*
X00875Y00329D02*
X00915D01*
Y00299*
X00895*
X00915*
Y00269*
X00855Y00329D02*
X00815D01*
X00835*
Y00269*
X00795D02*
Y00329D01*
X00775Y00309*
X00755Y00329*
Y00269*
X00735Y00299D02*
X00695D01*
X00675Y00329D02*
Y00289D01*
X00655Y00269*
X00635Y00289*
Y00329*
X00615Y0026D02*
X00575D01*
X00555Y00319D02*
X00545Y00329D01*
X00525*
X00515Y00319*
Y00279*
X00525Y00269*
X00545*
X00555Y00279*
Y00319*
X00495Y00269D02*
X00475D01*
X00485*
Y00329*
X00495Y00319*
X00445Y00299D02*
X00405D01*
X00385Y00269D02*
Y00329D01*
X00355*
X00345Y00319*
Y00299*
X00355Y00289*
X00385*
X00365D02*
X00345Y00269D01*
X00325D02*
Y00329D01*
X00305Y00309*
X00285Y00329*
Y00269*
X00265Y00329D02*
X00225D01*
X00245*
Y00269*
G54D27*
X00383Y02024D02*
Y0219D01*
G54D28*
X00419Y01218D02*
Y01278D01*
X00578Y01295D02*
X00595Y01278D01*
Y01191D02*
Y01278D01*
X00419D02*
X00436Y01295D01*
X00578*
X00611Y01175D02*
X00818D01*
X00595Y01191D02*
X00611Y01175D01*
X00875Y01063D02*
X00904D01*
X0025Y01218D02*
X00419D01*
Y01215D02*
Y01218D01*
X00835Y01072D02*
Y01158D01*
X00846Y0106D02*
X00875D01*
X00835Y01072D02*
X00846Y0106D01*
X00818Y01175D02*
X00835Y01158D01*
X0025Y01218D02*
Y01883D01*
Y00431D02*
Y01218D01*
X00266Y019D02*
X006D01*
X0025Y01883D02*
X00266Y019D01*
X006D02*
Y02024D01*
X01205Y01916D02*
Y02015D01*
X01188Y019D02*
X01205Y01916D01*
X006Y019D02*
X01188D01*
X00753Y00415D02*
X0077Y00431D01*
Y005*
X00266Y00415D02*
X00753D01*
X0025Y00431D02*
X00266Y00415D01*
X006Y02024D02*
Y0219D01*
M02*