M48
;Layer_Color=9474304
;FILE_FORMAT=4:4
METRIC,LZ
;TYPE=PLATED
T1F00S00C0.7112
T2F00S00C1.0200
T3F00S00C1.1000
T4F00S00C1.2000
T6F00S00C1.8000
%
T01
X0039243Y0009271
X0054356Y0026035
X0060071Y0021209
X0067564Y0035814
X0067691Y0048514
X0052451Y0042164
T02
X0048387Y0018034
Y0020574
Y0023114
Y0025654
Y0028194
Y0030734
Y0033274
Y0035814
Y0038354
X0063627
Y0035814
Y0033274
Y0030734
Y0028194
Y0025654
Y0023114
Y0020574
Y0018034
Y0040894
Y0043434
Y0045974
Y0048514
Y0051054
Y0053594
X0048387
Y0051054
Y0048514
Y0045974
Y0043434
Y0040894
T03
X0017653Y0032385
Y0034925
Y0037465
X0037973
Y0034925
Y0040005
Y0042545
X0017653
Y0045085
Y0040005
T04
X0009779Y0036275
Y0038775
X0078215Y0028007
Y0025507
Y0023007
Y0020507
X0079248Y0039831
Y0042331
Y0044831
Y0047331
X0078105Y0058166
Y0060666
Y0063166
X0009779Y0043775
Y0041275
T06
X000974Y0051426
Y0055626
X001524
Y0051426
M30
