G04*
G04 #@! TF.GenerationSoftware,Altium Limited,Altium Designer,23.1.1 (15)*
G04*
G04 Layer_Physical_Order=1*
G04 Layer_Color=255*
%FSLAX44Y44*%
%MOMM*%
G71*
G04*
G04 #@! TF.SameCoordinates,945C3F72-89AD-46E6-9685-04B11054D932*
G04*
G04*
G04 #@! TF.FilePolarity,Positive*
G04*
G01*
G75*
%ADD10C,0.7000*%
%ADD11R,2.0000X2.0000*%
%ADD12R,2.5400X1.5400*%
%ADD13R,2.2000X2.2000*%
%ADD14O,2.5000X4.0000*%
%ADD15O,4.4000X2.5000*%
%ADD16O,4.0000X2.5000*%
%ADD17R,3.4000X3.2000*%
%ADD18C,2.0000*%
G36*
X325476Y273050D02*
X326847D01*
Y266192D01*
X325476D01*
Y264820D01*
X317246D01*
Y266192D01*
X315874D01*
Y273050D01*
X317246D01*
Y274422D01*
X325476D01*
Y273050D01*
D02*
G37*
G36*
X381711Y257962D02*
X383083D01*
Y255219D01*
X381711D01*
Y253848D01*
X380340D01*
Y252476D01*
X352908D01*
Y253848D01*
X351536D01*
Y255219D01*
X350164D01*
Y257962D01*
X351536D01*
Y259334D01*
X381711D01*
Y257962D01*
D02*
G37*
G36*
X289814D02*
X291186D01*
Y256591D01*
X289814D01*
Y253848D01*
X288442D01*
Y252476D01*
X261010D01*
Y253848D01*
X259639D01*
Y255219D01*
X258267D01*
Y257962D01*
X259639D01*
Y259334D01*
X289814D01*
Y257962D01*
D02*
G37*
G36*
X383083Y242875D02*
X381711D01*
Y241503D01*
X380340D01*
Y240132D01*
X352908D01*
Y241503D01*
X351536D01*
Y244246D01*
X350164D01*
Y245618D01*
X351536D01*
Y246990D01*
X383083D01*
Y242875D01*
D02*
G37*
G36*
X289814Y245618D02*
X291186D01*
Y244246D01*
X289814D01*
Y241503D01*
X288442D01*
Y240132D01*
X261010D01*
Y241503D01*
X259639D01*
Y242875D01*
X258267D01*
Y246990D01*
X289814D01*
Y245618D01*
D02*
G37*
G36*
X324104Y257962D02*
X325476D01*
Y249733D01*
X326847D01*
Y241503D01*
X328219D01*
Y233274D01*
X329590D01*
Y227787D01*
X330962D01*
Y231902D01*
X332334D01*
Y236017D01*
X333705D01*
Y240132D01*
X335077D01*
Y244246D01*
X336448D01*
Y245618D01*
X337820D01*
Y246990D01*
X346050D01*
Y245618D01*
X347421D01*
Y244246D01*
X348793D01*
Y242875D01*
X350164D01*
Y241503D01*
X340563D01*
Y238760D01*
X339192D01*
Y233274D01*
X337820D01*
Y229159D01*
X336448D01*
Y225044D01*
X335077D01*
Y220929D01*
X333705D01*
Y215443D01*
X332334D01*
Y212700D01*
X326847D01*
Y214071D01*
X325476D01*
Y220929D01*
X324104D01*
Y229159D01*
X322732D01*
Y237388D01*
X321361D01*
Y244246D01*
X319989D01*
Y240132D01*
X318618D01*
Y236017D01*
X317246D01*
Y230530D01*
X315874D01*
Y227787D01*
X314503D01*
Y226416D01*
X310388D01*
Y227787D01*
X309016D01*
Y230530D01*
X307645D01*
Y234645D01*
X306273D01*
Y238760D01*
X304902D01*
Y240132D01*
X298044D01*
Y241503D01*
X296672D01*
Y242875D01*
X295300D01*
Y244246D01*
X293929D01*
Y246990D01*
X307645D01*
Y245618D01*
X310388D01*
Y241503D01*
X311760D01*
Y238760D01*
X313131D01*
Y242875D01*
X314503D01*
Y246990D01*
X315874D01*
Y251104D01*
X317246D01*
Y256591D01*
X318618D01*
Y259334D01*
X319989D01*
Y260706D01*
X324104D01*
Y257962D01*
D02*
G37*
G36*
X383083Y230530D02*
X381711D01*
Y229159D01*
X380340D01*
Y227787D01*
X354279D01*
Y229159D01*
X351536D01*
Y231902D01*
X350164D01*
Y233274D01*
X351536D01*
Y234645D01*
X383083D01*
Y230530D01*
D02*
G37*
G36*
X289814Y233274D02*
X291186D01*
Y231902D01*
X289814D01*
Y229159D01*
X287071D01*
Y227787D01*
X261010D01*
Y229159D01*
X259639D01*
Y230530D01*
X258267D01*
Y234645D01*
X289814D01*
Y233274D01*
D02*
G37*
G36*
X252781Y242875D02*
X251409D01*
Y241503D01*
X250038D01*
Y240132D01*
X243180D01*
Y238760D01*
X244551D01*
Y237388D01*
X245923D01*
Y236017D01*
X247294D01*
Y234645D01*
X248666D01*
Y231902D01*
X250038D01*
Y230530D01*
X251409D01*
Y227787D01*
X244551D01*
Y229159D01*
X243180D01*
Y230530D01*
X241808D01*
Y231902D01*
X240436D01*
Y233274D01*
X239065D01*
Y234645D01*
X237693D01*
Y236017D01*
X236322D01*
Y237388D01*
X234950D01*
Y240132D01*
X223977D01*
Y241503D01*
X222606D01*
Y242875D01*
X221234D01*
Y246990D01*
X245923D01*
Y248361D01*
X247294D01*
Y252476D01*
X222606D01*
Y253848D01*
X221234D01*
Y256591D01*
X219862D01*
Y257962D01*
X221234D01*
Y259334D01*
X252781D01*
Y242875D01*
D02*
G37*
G36*
X173228Y273050D02*
X178714D01*
Y271678D01*
X181458D01*
Y270307D01*
X184201D01*
Y268935D01*
X186944D01*
Y267564D01*
X188316D01*
Y266192D01*
X191059D01*
Y264820D01*
X192430D01*
Y263449D01*
X193802D01*
Y262077D01*
X195174D01*
Y259334D01*
X196545D01*
Y257962D01*
X197917D01*
Y255219D01*
X199288D01*
Y253848D01*
X200660D01*
Y249733D01*
X202032D01*
Y245618D01*
X203403D01*
Y237388D01*
X204775D01*
Y227787D01*
X202032D01*
Y236017D01*
X200660D01*
Y240132D01*
X199288D01*
Y242875D01*
X197917D01*
Y244246D01*
X196545D01*
Y246990D01*
X195174D01*
Y248361D01*
X193802D01*
Y249733D01*
X192430D01*
Y251104D01*
X191059D01*
Y252476D01*
X189687D01*
Y253848D01*
X188316D01*
Y255219D01*
X185572D01*
Y256591D01*
X184201D01*
Y257962D01*
X181458D01*
Y259334D01*
X177343D01*
Y260706D01*
X166370D01*
Y262077D01*
X162255D01*
Y263449D01*
X160884D01*
Y264820D01*
X159512D01*
Y270307D01*
X160884D01*
Y271678D01*
X162255D01*
Y273050D01*
X164998D01*
Y274422D01*
X173228D01*
Y273050D01*
D02*
G37*
G36*
X236322Y207213D02*
X234950D01*
Y205842D01*
X233578D01*
Y211328D01*
X232207D01*
Y208585D01*
X230835D01*
Y207213D01*
X229464D01*
Y205842D01*
X228092D01*
Y207213D01*
X226720D01*
Y208585D01*
X225349D01*
Y211328D01*
X223977D01*
Y207213D01*
X221234D01*
Y215443D01*
X225349D01*
Y214071D01*
X226720D01*
Y211328D01*
X228092D01*
Y208585D01*
X229464D01*
Y211328D01*
X230835D01*
Y214071D01*
X232207D01*
Y215443D01*
X236322D01*
Y207213D01*
D02*
G37*
G36*
X306273Y214071D02*
Y208585D01*
X314503D01*
Y207213D01*
X313131D01*
Y205842D01*
X306273D01*
Y207213D01*
X304902D01*
Y215443D01*
X306273D01*
Y214071D01*
D02*
G37*
G36*
X296672D02*
X298044D01*
Y211328D01*
X299415D01*
Y209956D01*
X300787D01*
Y205842D01*
X299415D01*
Y207213D01*
X298044D01*
Y208585D01*
X292557D01*
Y207213D01*
X291186D01*
Y205842D01*
X289814D01*
Y209956D01*
X291186D01*
Y212700D01*
X292557D01*
Y215443D01*
X296672D01*
Y214071D01*
D02*
G37*
G36*
X285699D02*
X280213D01*
Y212700D01*
X277470D01*
Y208585D01*
X285699D01*
Y207213D01*
X284328D01*
Y205842D01*
X277470D01*
Y207213D01*
X276098D01*
Y208585D01*
X274726D01*
Y214071D01*
X276098D01*
Y215443D01*
X285699D01*
Y214071D01*
D02*
G37*
G36*
X270612Y205842D02*
X269240D01*
Y207213D01*
Y215443D01*
X270612D01*
Y205842D01*
D02*
G37*
G36*
X263754Y214071D02*
X265125D01*
Y208585D01*
X263754D01*
Y207213D01*
X262382D01*
Y205842D01*
X254152D01*
Y215443D01*
X263754D01*
Y214071D01*
D02*
G37*
G36*
X250038D02*
X243180D01*
Y211328D01*
X250038D01*
Y209956D01*
X241808D01*
Y208585D01*
X250038D01*
Y205842D01*
X241808D01*
Y207213D01*
X240436D01*
Y209956D01*
X239065D01*
Y211328D01*
X240436D01*
Y215443D01*
X250038D01*
Y214071D01*
D02*
G37*
G36*
X149911Y256591D02*
X148539D01*
Y255219D01*
X147168D01*
Y253848D01*
X145796D01*
Y252476D01*
X143053D01*
Y251104D01*
X141681D01*
Y248361D01*
X140310D01*
Y246990D01*
X138938D01*
Y245618D01*
X137566D01*
Y242875D01*
X136195D01*
Y238760D01*
X134823D01*
Y234645D01*
X133452D01*
Y216814D01*
X134823D01*
Y214071D01*
X136195D01*
Y209956D01*
X137566D01*
Y207213D01*
X138938D01*
Y203098D01*
X137566D01*
Y200355D01*
X127965D01*
Y201727D01*
X126594D01*
Y203098D01*
X125222D01*
Y205842D01*
X123850D01*
Y209956D01*
X122479D01*
Y215443D01*
Y216814D01*
Y230530D01*
X123850D01*
Y234645D01*
X125222D01*
Y237388D01*
X126594D01*
Y240132D01*
X127965D01*
Y242875D01*
X129337D01*
Y244246D01*
X130708D01*
Y245618D01*
X132080D01*
Y246990D01*
X133452D01*
Y248361D01*
X134823D01*
Y249733D01*
X136195D01*
Y251104D01*
X138938D01*
Y252476D01*
X140310D01*
Y253848D01*
X143053D01*
Y255219D01*
X144424D01*
Y256591D01*
X147168D01*
Y257962D01*
X149911D01*
Y256591D01*
D02*
G37*
G36*
X273355Y188011D02*
X270612D01*
Y192126D01*
X265125D01*
Y188011D01*
X262382D01*
Y196240D01*
X263754D01*
Y197612D01*
X265125D01*
Y193497D01*
X270612D01*
Y194869D01*
Y196240D01*
Y197612D01*
X273355D01*
Y188011D01*
D02*
G37*
G36*
X207518Y214071D02*
X208890D01*
Y211328D01*
X210261D01*
Y205842D01*
X208890D01*
Y203098D01*
X207518D01*
Y200355D01*
X206146D01*
Y198984D01*
X204775D01*
Y197612D01*
X203403D01*
Y196240D01*
X202032D01*
Y194869D01*
X200660D01*
Y193497D01*
X197917D01*
Y192126D01*
X196545D01*
Y190754D01*
X193802D01*
Y189382D01*
X189687D01*
Y188011D01*
X185572D01*
Y186639D01*
X169113D01*
Y188011D01*
X164998D01*
Y189382D01*
X160884D01*
Y190754D01*
X156769D01*
Y192126D01*
X154026D01*
Y193497D01*
X152654D01*
Y194869D01*
X149911D01*
Y196240D01*
X152654D01*
Y194869D01*
X156769D01*
Y193497D01*
X163627D01*
Y192126D01*
X169113D01*
Y193497D01*
X175971D01*
Y194869D01*
X180086D01*
Y196240D01*
X184201D01*
Y197612D01*
X186944D01*
Y198984D01*
X188316D01*
Y200355D01*
X189687D01*
Y201727D01*
X191059D01*
Y203098D01*
X192430D01*
Y204470D01*
X193802D01*
Y205842D01*
X195174D01*
Y207213D01*
X196545D01*
Y209956D01*
X197917D01*
Y211328D01*
X199288D01*
Y212700D01*
X200660D01*
Y214071D01*
X202032D01*
Y215443D01*
X207518D01*
Y214071D01*
D02*
G37*
G36*
X288442Y196240D02*
X289814D01*
Y193497D01*
X288442D01*
Y188011D01*
X285699D01*
Y189382D01*
X284328D01*
Y190754D01*
X282956D01*
Y192126D01*
X281584D01*
Y193497D01*
X280213D01*
Y188011D01*
X277470D01*
Y197612D01*
X281584D01*
Y196240D01*
X282956D01*
Y193497D01*
X284328D01*
Y192126D01*
X285699D01*
Y190754D01*
X287071D01*
Y192126D01*
Y197612D01*
X288442D01*
Y196240D01*
D02*
G37*
G36*
X383083Y194869D02*
X376225D01*
Y193497D01*
X383083D01*
Y188011D01*
X373482D01*
Y190754D01*
X380340D01*
Y192126D01*
X373482D01*
Y197612D01*
X383083D01*
Y194869D01*
D02*
G37*
G36*
X369367D02*
X361137D01*
Y193497D01*
X369367D01*
Y192126D01*
X361137D01*
Y190754D01*
X369367D01*
Y188011D01*
X361137D01*
Y189382D01*
X359766D01*
Y196240D01*
X361137D01*
Y197612D01*
X369367D01*
Y194869D01*
D02*
G37*
G36*
X355651Y196240D02*
Y188011D01*
X352908D01*
Y197612D01*
X355651D01*
Y196240D01*
D02*
G37*
G36*
X348793Y194869D02*
X340563D01*
Y190754D01*
X346050D01*
Y192126D01*
X341935D01*
Y193497D01*
X348793D01*
Y188011D01*
X339192D01*
Y189382D01*
X337820D01*
Y196240D01*
X339192D01*
Y197612D01*
X348793D01*
Y194869D01*
D02*
G37*
G36*
X332334Y196240D02*
X333705D01*
Y192126D01*
Y190754D01*
Y189382D01*
X332334D01*
Y188011D01*
X322732D01*
Y192126D01*
X321361D01*
Y193497D01*
X322732D01*
Y196240D01*
X324104D01*
Y197612D01*
X332334D01*
Y196240D01*
D02*
G37*
G36*
X310388D02*
X311760D01*
Y190754D01*
X318618D01*
Y188011D01*
X310388D01*
Y189382D01*
X309016D01*
Y197612D01*
X310388D01*
Y196240D01*
D02*
G37*
G36*
X303530D02*
X304902D01*
Y189382D01*
X303530D01*
Y188011D01*
X293929D01*
Y189382D01*
Y190754D01*
X292557D01*
Y194869D01*
X293929D01*
Y197612D01*
X303530D01*
Y196240D01*
D02*
G37*
G36*
X258267Y194869D02*
X251409D01*
Y190754D01*
X258267D01*
Y189382D01*
X259639D01*
Y188011D01*
X250038D01*
Y189382D01*
X248666D01*
Y196240D01*
X250038D01*
Y197612D01*
X258267D01*
Y194869D01*
D02*
G37*
G36*
X244551Y196240D02*
Y194869D01*
X237693D01*
Y193497D01*
X244551D01*
Y192126D01*
X237693D01*
Y190754D01*
X244551D01*
Y188011D01*
X236322D01*
Y189382D01*
X234950D01*
Y196240D01*
X236322D01*
Y197612D01*
X244551D01*
Y196240D01*
D02*
G37*
G36*
X232207Y194869D02*
X226720D01*
Y189382D01*
Y188011D01*
X225349D01*
Y194869D01*
X221234D01*
Y197612D01*
X232207D01*
Y194869D01*
D02*
G37*
%LPC*%
G36*
X295300Y212700D02*
X293929D01*
Y209956D01*
X296672D01*
Y211328D01*
X295300D01*
Y212700D01*
D02*
G37*
G36*
X261010Y214071D02*
X256896D01*
Y208585D01*
X262382D01*
Y211328D01*
Y212700D01*
X261010D01*
Y214071D01*
D02*
G37*
G36*
X330962Y194869D02*
X324104D01*
Y190754D01*
X330962D01*
Y192126D01*
Y193497D01*
Y194869D01*
D02*
G37*
G36*
X302158D02*
X295300D01*
Y190754D01*
X302158D01*
Y194869D01*
D02*
G37*
%LPD*%
D10*
X588989Y260350D02*
X600710Y248629D01*
Y212090D02*
Y248629D01*
X524510Y418122D02*
Y421640D01*
X519430Y96811D02*
Y413042D01*
X392430Y92710D02*
X515330D01*
X519430Y413042D02*
X524510Y418122D01*
X515330Y92710D02*
X519430Y96811D01*
X676275Y484505D02*
X676910Y485140D01*
X676275Y358775D02*
Y484505D01*
X675640Y358140D02*
X676275Y358775D01*
X543560Y260350D02*
X588989D01*
D11*
X636270Y535940D02*
D03*
Y510540D02*
D03*
Y485140D02*
D03*
Y459740D02*
D03*
Y434340D02*
D03*
Y408940D02*
D03*
Y383540D02*
D03*
Y358140D02*
D03*
Y332740D02*
D03*
Y307340D02*
D03*
Y281940D02*
D03*
Y256540D02*
D03*
Y231140D02*
D03*
Y205740D02*
D03*
Y180340D02*
D03*
X483870Y535940D02*
D03*
Y510540D02*
D03*
Y485140D02*
D03*
Y459740D02*
D03*
Y434340D02*
D03*
Y408940D02*
D03*
Y383540D02*
D03*
Y358140D02*
D03*
Y332740D02*
D03*
Y307340D02*
D03*
Y281940D02*
D03*
Y256540D02*
D03*
Y231140D02*
D03*
Y205740D02*
D03*
Y180340D02*
D03*
D12*
X379730Y400050D02*
D03*
Y425450D02*
D03*
Y374650D02*
D03*
Y349250D02*
D03*
X176530Y450850D02*
D03*
Y323850D02*
D03*
Y349250D02*
D03*
Y374650D02*
D03*
Y400050D02*
D03*
Y425450D02*
D03*
D13*
X782150Y230070D02*
D03*
Y205070D02*
D03*
Y255070D02*
D03*
Y280070D02*
D03*
X781050Y631660D02*
D03*
Y606660D02*
D03*
Y581660D02*
D03*
X97790Y387750D02*
D03*
Y362750D02*
D03*
Y412750D02*
D03*
Y437750D02*
D03*
X792480Y448310D02*
D03*
Y473310D02*
D03*
Y423310D02*
D03*
Y398310D02*
D03*
D14*
X259070Y541810D02*
D03*
D15*
X306070Y511810D02*
D03*
D16*
Y571810D02*
D03*
D17*
X97400Y514260D02*
D03*
X152400D02*
D03*
X97400Y556260D02*
D03*
X152400D02*
D03*
D18*
X600710Y212090D02*
D03*
X524510Y421640D02*
D03*
X675640Y358140D02*
D03*
X543560Y260350D02*
D03*
X676910Y485140D02*
D03*
X392430Y92710D02*
D03*
M02*
